<svg width="32" height="24" viewBox="0 0 32 24" fill="none" xmlns="http://www.w3.org/2000/svg">
<path d="M3 21.0001L14 21V5.98924C14 4.6252 14 3.94318 13.7187 3.47045C13.472 3.05596 13.0838 2.74457 12.6257 2.59368C12.1032 2.42159 11.4374 2.56954 10.1058 2.86544L7.50582 3.44322C6.6117 3.64191 6.16464 3.74126 5.83093 3.98167C5.53658 4.19373 5.30545 4.48186 5.1623 4.8152C5 5.19312 5 5.65108 5 6.56702V21.0001M13.994 5.00007H15.8C16.9201 5.00007 17.4802 5.00007 17.908 5.21805C18.2843 5.4098 18.5903 5.71576 18.782 6.09209C19 6.51991 19 7.07996 19 8.20007V21.0001H21M11 12.0001H11.01" stroke="#F4F5F7" stroke-width="2" stroke-linecap="round" stroke-linejoin="round"/>
<path d="M17 10C16.4477 10 16 10.4477 16 11C16 11.5523 16.4477 12 17 12V10ZM31.7071 11.7071C32.0976 11.3166 32.0976 10.6834 31.7071 10.2929L25.3431 3.92893C24.9526 3.53841 24.3195 3.53841 23.9289 3.92893C23.5384 4.31946 23.5384 4.95262 23.9289 5.34315L29.5858 11L23.9289 16.6569C23.5384 17.0474 23.5384 17.6805 23.9289 18.0711C24.3195 18.4616 24.9526 18.4616 25.3431 18.0711L31.7071 11.7071ZM17 12H31V10H17V12Z" fill="white"/>
</svg>
