<svg width="48" height="48" viewBox="0 0 48 48" fill="none" xmlns="http://www.w3.org/2000/svg">
<rect width="48" height="48" rx="8" fill="#0DF2FF"/>
<path d="M17.0014 21.264C15.8174 21.264 14.7294 20.928 13.7374 20.256C12.7454 19.584 11.9534 18.608 11.3614 17.328C10.7694 16.032 10.4734 14.456 10.4734 12.6C10.4734 10.744 10.7694 9.176 11.3614 7.896C11.9534 6.6 12.7454 5.616 13.7374 4.944C14.7294 4.272 15.8174 3.936 17.0014 3.936C17.9934 3.936 18.8974 4.152 19.7134 4.584C20.5454 5 21.2574 5.616 21.8494 6.432C22.4574 7.232 22.8974 8.208 23.1694 9.36L20.5774 10.104C20.3374 8.936 19.8894 8.048 19.2334 7.44C18.5934 6.832 17.8654 6.528 17.0494 6.528C16.3614 6.528 15.7374 6.752 15.1774 7.2C14.6334 7.648 14.1934 8.328 13.8574 9.24C13.5374 10.136 13.3774 11.256 13.3774 12.6C13.3774 13.944 13.5374 15.072 13.8574 15.984C14.1934 16.88 14.6334 17.552 15.1774 18C15.7374 18.448 16.3614 18.672 17.0494 18.672C17.8654 18.672 18.5934 18.368 19.2334 17.76C19.8894 17.152 20.3374 16.264 20.5774 15.096L23.1694 15.84C22.8974 16.976 22.4574 17.952 21.8494 18.768C21.2574 19.584 20.5454 20.208 19.7134 20.64C18.8974 21.056 17.9934 21.264 17.0014 21.264ZM31.2 21.24C30.064 21.24 29.04 20.968 28.128 20.424C27.216 19.864 26.496 19.12 25.968 18.192C25.44 17.248 25.176 16.184 25.176 15C25.176 13.832 25.44 12.784 25.968 11.856C26.496 10.912 27.216 10.168 28.128 9.624C29.04 9.064 30.064 8.784 31.2 8.784C32.336 8.784 33.36 9.064 34.272 9.624C35.184 10.168 35.904 10.912 36.432 11.856C36.96 12.784 37.224 13.832 37.224 15C37.224 16.184 36.96 17.248 36.432 18.192C35.904 19.12 35.184 19.864 34.272 20.424C33.376 20.968 32.352 21.24 31.2 21.24ZM31.2 18.912C31.856 18.912 32.432 18.744 32.928 18.408C33.44 18.072 33.84 17.608 34.128 17.016C34.432 16.424 34.584 15.752 34.584 15C34.584 14.248 34.432 13.584 34.128 13.008C33.84 12.416 33.44 11.952 32.928 11.616C32.432 11.28 31.856 11.112 31.2 11.112C30.544 11.112 29.96 11.288 29.448 11.64C28.952 11.976 28.552 12.44 28.248 13.032C27.96 13.608 27.816 14.264 27.816 15C27.816 15.752 27.96 16.424 28.248 17.016C28.552 17.608 28.952 18.072 29.448 18.408C29.96 18.744 30.544 18.912 31.2 18.912ZM16.1134 45.168C15.1054 45.168 14.1854 44.896 13.3534 44.352C12.5374 43.808 11.8814 43.072 11.3854 42.144C10.9054 41.2 10.6654 40.152 10.6654 39C10.6654 37.832 10.9134 36.784 11.4094 35.856C11.9054 34.928 12.5694 34.192 13.4014 33.648C14.2334 33.088 15.1534 32.808 16.1614 32.808C16.8174 32.808 17.4174 32.936 17.9614 33.192C18.5214 33.448 19.0174 33.808 19.4494 34.272V27.768L22.1614 27.312V45H19.5214V43.608C19.0894 44.12 18.5854 44.512 18.0094 44.784C17.4334 45.04 16.8014 45.168 16.1134 45.168ZM16.7614 42.936C17.3054 42.936 17.8094 42.832 18.2734 42.624C18.7374 42.416 19.1294 42.12 19.4494 41.736V36.264C19.1294 35.88 18.7294 35.584 18.2494 35.376C17.7854 35.152 17.2894 35.04 16.7614 35.04C16.0894 35.04 15.4974 35.208 14.9854 35.544C14.4734 35.88 14.0734 36.344 13.7854 36.936C13.4974 37.528 13.3534 38.216 13.3534 39C13.3534 39.752 13.4974 40.432 13.7854 41.04C14.0734 41.632 14.4734 42.096 14.9854 42.432C15.4974 42.768 16.0894 42.936 16.7614 42.936ZM31.512 45.24C30.344 45.24 29.288 44.968 28.344 44.424C27.4 43.864 26.648 43.112 26.088 42.168C25.544 41.224 25.272 40.168 25.272 39C25.272 37.816 25.528 36.76 26.04 35.832C26.568 34.904 27.28 34.168 28.176 33.624C29.088 33.064 30.104 32.784 31.224 32.784C32.392 32.784 33.424 33.056 34.32 33.6C35.232 34.144 35.944 34.88 36.456 35.808C36.984 36.736 37.248 37.8 37.248 39V39.648H27.936C28.016 40.304 28.224 40.888 28.56 41.4C28.912 41.896 29.352 42.288 29.88 42.576C30.424 42.864 31.016 43.008 31.656 43.008C32.28 43.008 32.856 42.888 33.384 42.648C33.928 42.408 34.376 42.072 34.728 41.64L36.528 43.248C35.84 43.936 35.08 44.44 34.248 44.76C33.416 45.08 32.504 45.24 31.512 45.24ZM27.96 37.944H34.656C34.56 37.352 34.352 36.84 34.032 36.408C33.728 35.96 33.336 35.616 32.856 35.376C32.392 35.12 31.864 34.992 31.272 34.992C30.712 34.992 30.2 35.112 29.736 35.352C29.288 35.592 28.912 35.936 28.608 36.384C28.304 36.816 28.088 37.336 27.96 37.944Z" fill="#FF007A"/>
</svg>
