<svg width="24" height="24" viewBox="0 0 24 24" fill="none" xmlns="http://www.w3.org/2000/svg">
<path d="M17.9991 7.16C17.9391 7.15 17.8691 7.15 17.8091 7.16C16.4291 7.11 15.3291 5.98 15.3291 4.58C15.3291 3.15 16.4791 2 17.9091 2C19.3391 2 20.4891 3.16 20.4891 4.58C20.4791 5.98 19.3791 7.11 17.9991 7.16Z" stroke="#F4F5F7" stroke-width="1.5" stroke-linecap="round" stroke-linejoin="round"/>
<path d="M16.9695 14.4399C18.3395 14.6699 19.8495 14.4299 20.9095 13.7199C22.3195 12.7799 22.3195 11.2399 20.9095 10.2999C19.8395 9.58992 18.3095 9.34991 16.9395 9.58991" stroke="#F4F5F7" stroke-width="1.5" stroke-linecap="round" stroke-linejoin="round"/>
<path d="M5.96949 7.16C6.02949 7.15 6.09949 7.15 6.15949 7.16C7.53949 7.11 8.63949 5.98 8.63949 4.58C8.63949 3.15 7.48949 2 6.05949 2C4.62949 2 3.47949 3.16 3.47949 4.58C3.48949 5.98 4.58949 7.11 5.96949 7.16Z" stroke="#F4F5F7" stroke-width="1.5" stroke-linecap="round" stroke-linejoin="round"/>
<path d="M6.99945 14.4399C5.62945 14.6699 4.11945 14.4299 3.05945 13.7199C1.64945 12.7799 1.64945 11.2399 3.05945 10.2999C4.12945 9.58992 5.65945 9.34991 7.02945 9.58991" stroke="#F4F5F7" stroke-width="1.5" stroke-linecap="round" stroke-linejoin="round"/>
<path d="M11.9991 14.63C11.9391 14.62 11.8691 14.62 11.8091 14.63C10.4291 14.58 9.3291 13.45 9.3291 12.05C9.3291 10.62 10.4791 9.46997 11.9091 9.46997C13.3391 9.46997 14.4891 10.63 14.4891 12.05C14.4791 13.45 13.3791 14.59 11.9991 14.63Z" stroke="#F4F5F7" stroke-width="1.5" stroke-linecap="round" stroke-linejoin="round"/>
<path d="M9.08973 17.7801C7.67973 18.7201 7.67973 20.2601 9.08973 21.2001C10.6898 22.2701 13.3098 22.2701 14.9098 21.2001C16.3198 20.2601 16.3198 18.7201 14.9098 17.7801C13.3198 16.7201 10.6898 16.7201 9.08973 17.7801Z" stroke="#F4F5F7" stroke-width="1.5" stroke-linecap="round" stroke-linejoin="round"/>
</svg>
